<svg xmlns="http://www.w3.org/2000/svg" viewBox="0 0 1400 900">
  <defs>
    <linearGradient id="bgGrad2" x1="0%" y1="0%" x2="100%" y2="100%">
      <stop offset="0%" style="stop-color:#0d0d1a"/>
      <stop offset="100%" style="stop-color:#1a1a2e"/>
    </linearGradient>
    
    <linearGradient id="boxGrad1" x1="0%" y1="0%" x2="0%" y2="100%">
      <stop offset="0%" style="stop-color:#2a2a4e"/>
      <stop offset="100%" style="stop-color:#1a1a3e"/>
    </linearGradient>
    
    <linearGradient id="arrowGrad" x1="0%" y1="0%" x2="100%" y2="0%">
      <stop offset="0%" style="stop-color:#4ecdc4"/>
      <stop offset="100%" style="stop-color:#ff6b6b"/>
    </linearGradient>
    
    <filter id="dropShadow" x="-20%" y="-20%" width="140%" height="140%">
      <feDropShadow dx="0" dy="4" stdDeviation="8" flood-color="#000" flood-opacity="0.3"/>
    </filter>
    
    <marker id="arrowhead" markerWidth="10" markerHeight="7" refX="9" refY="3.5" orient="auto">
      <polygon points="0 0, 10 3.5, 0 7" fill="#4ecdc4"/>
    </marker>
    
    <marker id="arrowheadRed" markerWidth="10" markerHeight="7" refX="9" refY="3.5" orient="auto">
      <polygon points="0 0, 10 3.5, 0 7" fill="#ff6b6b"/>
    </marker>
  </defs>
  
  <!-- Background -->
  <rect width="1400" height="900" fill="url(#bgGrad2)"/>
  
  <!-- Grid pattern -->
  <g opacity="0.05">
    <defs>
      <pattern id="grid" width="40" height="40" patternUnits="userSpaceOnUse">
        <path d="M 40 0 L 0 0 0 40" fill="none" stroke="#fff" stroke-width="0.5"/>
      </pattern>
    </defs>
    <rect width="100%" height="100%" fill="url(#grid)"/>
  </g>
  
  <!-- Title -->
  <text x="700" y="50" text-anchor="middle" fill="#ffffff" font-family="Georgia, serif" font-size="32" font-weight="300" letter-spacing="6">
    THREAT PLANE METHODOLOGY
  </text>
  <text x="700" y="80" text-anchor="middle" fill="#6b6b8d" font-family="JetBrains Mono, monospace" font-size="11" letter-spacing="3">
    END-TO-END PIPELINE FOR GEOMETRIC THREAT INTELLIGENCE
  </text>
  
  <!-- Phase 1: Data Ingestion -->
  <g transform="translate(50, 130)">
    <rect width="300" height="200" rx="8" fill="url(#boxGrad1)" stroke="#3a3a5e" filter="url(#dropShadow)"/>
    <text x="150" y="30" text-anchor="middle" fill="#ff6b6b" font-family="JetBrains Mono, monospace" font-size="11" letter-spacing="2">PHASE 1</text>
    <text x="150" y="55" text-anchor="middle" fill="#ffffff" font-family="Georgia, serif" font-size="18">Data Ingestion</text>
    
    <!-- Source boxes -->
    <rect x="20" y="75" width="80" height="35" rx="4" fill="rgba(255,107,107,0.2)" stroke="#ff6b6b" stroke-width="0.5"/>
    <text x="60" y="97" text-anchor="middle" fill="#e0e0e0" font-family="JetBrains Mono, monospace" font-size="9">Vuln Scans</text>
    
    <rect x="110" y="75" width="80" height="35" rx="4" fill="rgba(255,107,107,0.2)" stroke="#ff6b6b" stroke-width="0.5"/>
    <text x="150" y="97" text-anchor="middle" fill="#e0e0e0" font-family="JetBrains Mono, monospace" font-size="9">SIEM Logs</text>
    
    <rect x="200" y="75" width="80" height="35" rx="4" fill="rgba(255,107,107,0.2)" stroke="#ff6b6b" stroke-width="0.5"/>
    <text x="240" y="97" text-anchor="middle" fill="#e0e0e0" font-family="JetBrains Mono, monospace" font-size="9">Threat Intel</text>
    
    <rect x="20" y="120" width="80" height="35" rx="4" fill="rgba(255,107,107,0.2)" stroke="#ff6b6b" stroke-width="0.5"/>
    <text x="60" y="142" text-anchor="middle" fill="#e0e0e0" font-family="JetBrains Mono, monospace" font-size="9">Asset CMDB</text>
    
    <rect x="110" y="120" width="80" height="35" rx="4" fill="rgba(255,107,107,0.2)" stroke="#ff6b6b" stroke-width="0.5"/>
    <text x="150" y="142" text-anchor="middle" fill="#e0e0e0" font-family="JetBrains Mono, monospace" font-size="9">EDR Events</text>
    
    <rect x="200" y="120" width="80" height="35" rx="4" fill="rgba(255,107,107,0.2)" stroke="#ff6b6b" stroke-width="0.5"/>
    <text x="240" y="142" text-anchor="middle" fill="#e0e0e0" font-family="JetBrains Mono, monospace" font-size="9">IAM Data</text>
    
    <text x="150" y="180" text-anchor="middle" fill="#6b6b8d" font-family="JetBrains Mono, monospace" font-size="9">Apache Kafka Stream</text>
  </g>
  
  <!-- Arrow 1-2 -->
  <line x1="360" y1="230" x2="410" y2="230" stroke="#4ecdc4" stroke-width="2" marker-end="url(#arrowhead)"/>
  
  <!-- Phase 2: Graph Construction -->
  <g transform="translate(420, 130)">
    <rect width="300" height="200" rx="8" fill="url(#boxGrad1)" stroke="#3a3a5e" filter="url(#dropShadow)"/>
    <text x="150" y="30" text-anchor="middle" fill="#4ecdc4" font-family="JetBrains Mono, monospace" font-size="11" letter-spacing="2">PHASE 2</text>
    <text x="150" y="55" text-anchor="middle" fill="#ffffff" font-family="Georgia, serif" font-size="18">Graph Construction</text>
    
    <!-- Graph visualization -->
    <g transform="translate(70, 70)">
      <!-- Edges -->
      <line x1="20" y1="50" x2="80" y2="30" stroke="#4a4a6a" stroke-width="1"/>
      <line x1="20" y1="50" x2="60" y2="80" stroke="#4a4a6a" stroke-width="1"/>
      <line x1="80" y1="30" x2="140" y2="50" stroke="#4a4a6a" stroke-width="1"/>
      <line x1="60" y1="80" x2="140" y2="50" stroke="#4a4a6a" stroke-width="1"/>
      <line x1="80" y1="30" x2="100" y2="90" stroke="#4a4a6a" stroke-width="1"/>
      <line x1="100" y1="90" x2="140" y2="50" stroke="#4a4a6a" stroke-width="1"/>
      
      <!-- Nodes -->
      <circle cx="20" cy="50" r="12" fill="#ff6b6b" opacity="0.8"/>
      <circle cx="80" cy="30" r="10" fill="#4ecdc4" opacity="0.8"/>
      <circle cx="60" cy="80" r="8" fill="#ffe66d" opacity="0.8"/>
      <circle cx="140" cy="50" r="11" fill="#dda0dd" opacity="0.8"/>
      <circle cx="100" cy="90" r="9" fill="#95e1d3" opacity="0.8"/>
    </g>
    
    <text x="150" y="180" text-anchor="middle" fill="#6b6b8d" font-family="JetBrains Mono, monospace" font-size="9">Security Knowledge Graph (Neo4j)</text>
  </g>
  
  <!-- Arrow 2-3 -->
  <line x1="730" y1="230" x2="780" y2="230" stroke="#4ecdc4" stroke-width="2" marker-end="url(#arrowhead)"/>
  
  <!-- Phase 3: GNN Embedding -->
  <g transform="translate(790, 130)">
    <rect width="300" height="200" rx="8" fill="url(#boxGrad1)" stroke="#3a3a5e" filter="url(#dropShadow)"/>
    <text x="150" y="30" text-anchor="middle" fill="#ffe66d" font-family="JetBrains Mono, monospace" font-size="11" letter-spacing="2">PHASE 3</text>
    <text x="150" y="55" text-anchor="middle" fill="#ffffff" font-family="Georgia, serif" font-size="18">GNN Embedding</text>
    
    <!-- Neural network layers -->
    <g transform="translate(40, 70)">
      <!-- Layer 1 -->
      <circle cx="30" cy="20" r="6" fill="#ffe66d" opacity="0.6"/>
      <circle cx="30" cy="40" r="6" fill="#ffe66d" opacity="0.6"/>
      <circle cx="30" cy="60" r="6" fill="#ffe66d" opacity="0.6"/>
      <circle cx="30" cy="80" r="6" fill="#ffe66d" opacity="0.6"/>
      
      <!-- Layer 2 -->
      <circle cx="90" cy="30" r="6" fill="#ffe66d" opacity="0.7"/>
      <circle cx="90" cy="50" r="6" fill="#ffe66d" opacity="0.7"/>
      <circle cx="90" cy="70" r="6" fill="#ffe66d" opacity="0.7"/>
      
      <!-- Layer 3 -->
      <circle cx="150" cy="35" r="6" fill="#ffe66d" opacity="0.8"/>
      <circle cx="150" cy="55" r="6" fill="#ffe66d" opacity="0.8"/>
      <circle cx="150" cy="75" r="6" fill="#ffe66d" opacity="0.8"/>
      
      <!-- Layer 4 (output) -->
      <circle cx="210" cy="45" r="8" fill="#ffe66d" opacity="0.9"/>
      <circle cx="210" cy="65" r="8" fill="#ffe66d" opacity="0.9"/>
      
      <!-- Connections (simplified) -->
      <g stroke="#ffe66d" stroke-width="0.5" opacity="0.3">
        <line x1="36" y1="20" x2="84" y2="30"/>
        <line x1="36" y1="40" x2="84" y2="50"/>
        <line x1="36" y1="60" x2="84" y2="70"/>
        <line x1="96" y1="30" x2="144" y2="35"/>
        <line x1="96" y1="50" x2="144" y2="55"/>
        <line x1="96" y1="70" x2="144" y2="75"/>
        <line x1="156" y1="45" x2="202" y2="45"/>
        <line x1="156" y1="65" x2="202" y2="65"/>
      </g>
    </g>
    
    <text x="150" y="180" text-anchor="middle" fill="#6b6b8d" font-family="JetBrains Mono, monospace" font-size="9">Heterogeneous GAT + Risk Attention</text>
  </g>
  
  <!-- Arrow 3-4 -->
  <line x1="1100" y1="230" x2="1150" y2="230" stroke="#4ecdc4" stroke-width="2" marker-end="url(#arrowhead)"/>
  
  <!-- Phase 4: Dimensionality Reduction -->
  <g transform="translate(1100, 130)">
    <rect width="250" height="200" rx="8" fill="url(#boxGrad1)" stroke="#3a3a5e" filter="url(#dropShadow)"/>
    <text x="125" y="30" text-anchor="middle" fill="#95e1d3" font-family="JetBrains Mono, monospace" font-size="11" letter-spacing="2">PHASE 4</text>
    <text x="125" y="55" text-anchor="middle" fill="#ffffff" font-family="Georgia, serif" font-size="18">3D Projection</text>
    
    <!-- Projection visualization -->
    <g transform="translate(50, 65)">
      <!-- High-dim to low-dim arrow -->
      <text x="30" y="15" text-anchor="middle" fill="#6b6b8d" font-family="Cambria Math, serif" font-size="12" font-style="italic">ℝⁿ</text>
      <line x1="50" y1="10" x2="100" y2="10" stroke="#95e1d3" stroke-width="2" marker-end="url(#arrowhead)"/>
      <text x="130" y="15" text-anchor="middle" fill="#95e1d3" font-family="Cambria Math, serif" font-size="12" font-style="italic">ℝ³</text>
      
      <!-- 3D cube representation -->
      <g transform="translate(80, 30)">
        <polygon points="0,20 40,0 80,20 40,40" fill="none" stroke="#95e1d3" stroke-width="1" opacity="0.5"/>
        <line x1="0" y1="20" x2="0" y2="60" stroke="#95e1d3" stroke-width="1" opacity="0.5"/>
        <line x1="40" y1="40" x2="40" y2="80" stroke="#95e1d3" stroke-width="1" opacity="0.5"/>
        <line x1="80" y1="20" x2="80" y2="60" stroke="#95e1d3" stroke-width="1" opacity="0.5"/>
        <polygon points="0,60 40,40 40,80 0,60" fill="none" stroke="#95e1d3" stroke-width="1" opacity="0.3"/>
        
        <!-- Points in 3D -->
        <circle cx="20" cy="30" r="4" fill="#ff6b6b"/>
        <circle cx="50" cy="20" r="3" fill="#4ecdc4"/>
        <circle cx="30" cy="50" r="3.5" fill="#ffe66d"/>
        <circle cx="60" cy="45" r="3" fill="#dda0dd"/>
      </g>
    </g>
    
    <text x="125" y="180" text-anchor="middle" fill="#6b6b8d" font-family="JetBrains Mono, monospace" font-size="9">UMAP / t-SNE / PaCMAP</text>
  </g>
  
  <!-- Row 2 -->
  
  <!-- Phase 5: Topological Analysis -->
  <g transform="translate(50, 380)">
    <rect width="300" height="200" rx="8" fill="url(#boxGrad1)" stroke="#3a3a5e" filter="url(#dropShadow)"/>
    <text x="150" y="30" text-anchor="middle" fill="#dda0dd" font-family="JetBrains Mono, monospace" font-size="11" letter-spacing="2">PHASE 5</text>
    <text x="150" y="55" text-anchor="middle" fill="#ffffff" font-family="Georgia, serif" font-size="18">Topological Analysis</text>
    
    <!-- Persistence diagram -->
    <g transform="translate(30, 70)">
      <!-- Axes -->
      <line x1="20" y1="100" x2="120" y2="100" stroke="#6b6b8d" stroke-width="1"/>
      <line x1="20" y1="100" x2="20" y2="20" stroke="#6b6b8d" stroke-width="1"/>
      <text x="70" y="115" text-anchor="middle" fill="#6b6b8d" font-family="JetBrains Mono, monospace" font-size="8">Birth</text>
      <text x="10" y="60" text-anchor="middle" fill="#6b6b8d" font-family="JetBrains Mono, monospace" font-size="8" transform="rotate(-90, 10, 60)">Death</text>
      
      <!-- Diagonal -->
      <line x1="20" y1="100" x2="120" y2="20" stroke="#3a3a5e" stroke-width="1" stroke-dasharray="3,3"/>
      
      <!-- Points (persistent features) -->
      <circle cx="40" cy="70" r="5" fill="#ff6b6b"/>
      <circle cx="55" cy="45" r="4" fill="#ff6b6b"/>
      <circle cx="70" cy="60" r="6" fill="#4ecdc4"/>
      <circle cx="85" cy="35" r="4" fill="#ffe66d"/>
      <circle cx="60" cy="80" r="3" fill="#dda0dd"/>
      
      <!-- Legend -->
      <circle cx="150" cy="30" r="4" fill="#ff6b6b"/>
      <text x="160" y="34" fill="#e0e0e0" font-family="JetBrains Mono, monospace" font-size="8">H₀</text>
      <circle cx="150" cy="50" r="4" fill="#4ecdc4"/>
      <text x="160" y="54" fill="#e0e0e0" font-family="JetBrains Mono, monospace" font-size="8">H₁</text>
      <circle cx="150" cy="70" r="4" fill="#ffe66d"/>
      <text x="160" y="74" fill="#e0e0e0" font-family="JetBrains Mono, monospace" font-size="8">H₂</text>
    </g>
    
    <text x="150" y="180" text-anchor="middle" fill="#6b6b8d" font-family="JetBrains Mono, monospace" font-size="9">Persistent Homology + Mapper</text>
  </g>
  
  <!-- Arrow 5-6 -->
  <line x1="360" y1="480" x2="410" y2="480" stroke="#4ecdc4" stroke-width="2" marker-end="url(#arrowhead)"/>
  
  <!-- Phase 6: ML Analysis -->
  <g transform="translate(420, 380)">
    <rect width="300" height="200" rx="8" fill="url(#boxGrad1)" stroke="#3a3a5e" filter="url(#dropShadow)"/>
    <text x="150" y="30" text-anchor="middle" fill="#87ceeb" font-family="JetBrains Mono, monospace" font-size="11" letter-spacing="2">PHASE 6</text>
    <text x="150" y="55" text-anchor="middle" fill="#ffffff" font-family="Georgia, serif" font-size="18">ML Analysis</text>
    
    <!-- Analysis types -->
    <g transform="translate(20, 70)">
      <rect x="0" y="0" width="125" height="40" rx="4" fill="rgba(135,206,235,0.15)" stroke="#87ceeb" stroke-width="0.5"/>
      <text x="62.5" y="18" text-anchor="middle" fill="#e0e0e0" font-family="JetBrains Mono, monospace" font-size="10">Anomaly Detection</text>
      <text x="62.5" y="32" text-anchor="middle" fill="#6b6b8d" font-family="JetBrains Mono, monospace" font-size="8">LOF, Isolation Forest</text>
      
      <rect x="135" y="0" width="125" height="40" rx="4" fill="rgba(135,206,235,0.15)" stroke="#87ceeb" stroke-width="0.5"/>
      <text x="197.5" y="18" text-anchor="middle" fill="#e0e0e0" font-family="JetBrains Mono, monospace" font-size="10">Trajectory Pred.</text>
      <text x="197.5" y="32" text-anchor="middle" fill="#6b6b8d" font-family="JetBrains Mono, monospace" font-size="8">Neural ODE</text>
      
      <rect x="0" y="50" width="125" height="40" rx="4" fill="rgba(135,206,235,0.15)" stroke="#87ceeb" stroke-width="0.5"/>
      <text x="62.5" y="68" text-anchor="middle" fill="#e0e0e0" font-family="JetBrains Mono, monospace" font-size="10">Clustering</text>
      <text x="62.5" y="82" text-anchor="middle" fill="#6b6b8d" font-family="JetBrains Mono, monospace" font-size="8">HDBSCAN, Spectral</text>
      
      <rect x="135" y="50" width="125" height="40" rx="4" fill="rgba(135,206,235,0.15)" stroke="#87ceeb" stroke-width="0.5"/>
      <text x="197.5" y="68" text-anchor="middle" fill="#e0e0e0" font-family="JetBrains Mono, monospace" font-size="10">Causal Discovery</text>
      <text x="197.5" y="82" text-anchor="middle" fill="#6b6b8d" font-family="JetBrains Mono, monospace" font-size="8">PC Algorithm</text>
    </g>
    
    <text x="150" y="180" text-anchor="middle" fill="#6b6b8d" font-family="JetBrains Mono, monospace" font-size="9">Geometric Machine Learning</text>
  </g>
  
  <!-- Arrow 6-7 -->
  <line x1="730" y1="480" x2="780" y2="480" stroke="#4ecdc4" stroke-width="2" marker-end="url(#arrowhead)"/>
  
  <!-- Phase 7: Visualization -->
  <g transform="translate(790, 380)">
    <rect width="300" height="200" rx="8" fill="url(#boxGrad1)" stroke="#3a3a5e" filter="url(#dropShadow)"/>
    <text x="150" y="30" text-anchor="middle" fill="#c9a0dc" font-family="JetBrains Mono, monospace" font-size="11" letter-spacing="2">PHASE 7</text>
    <text x="150" y="55" text-anchor="middle" fill="#ffffff" font-family="Georgia, serif" font-size="18">3D Visualization</text>
    
    <!-- Screen mockup -->
    <g transform="translate(50, 65)">
      <rect x="0" y="0" width="200" height="100" rx="4" fill="#0a0a1a" stroke="#3a3a5e"/>
      
      <!-- Mini threat plane -->
      <polygon points="20,80 60,50 180,60 140,90" fill="rgba(42,42,78,0.5)" stroke="#3a3a5e" stroke-width="0.5"/>
      
      <!-- Mini clusters -->
      <circle cx="50" cy="65" r="5" fill="#ff6b6b" opacity="0.8"/>
      <circle cx="80" cy="55" r="4" fill="#4ecdc4" opacity="0.8"/>
      <circle cx="120" cy="60" r="4" fill="#ffe66d" opacity="0.8"/>
      <circle cx="150" cy="70" r="3" fill="#dda0dd" opacity="0.8"/>
      
      <!-- Mini attack path -->
      <path d="M 50 65 Q 65 55 80 55" stroke="#ff4444" stroke-width="1" fill="none" opacity="0.5"/>
      
      <!-- UI elements -->
      <rect x="5" y="5" width="30" height="8" rx="2" fill="#2a2a4e"/>
      <rect x="5" y="16" width="20" height="8" rx="2" fill="#2a2a4e"/>
    </g>
    
    <text x="150" y="180" text-anchor="middle" fill="#6b6b8d" font-family="JetBrains Mono, monospace" font-size="9">Three.js / WebGL Interactive</text>
  </g>
  
  <!-- Arrow 7-8 -->
  <line x1="1100" y1="480" x2="1150" y2="480" stroke="#4ecdc4" stroke-width="2" marker-end="url(#arrowhead)"/>
  
  <!-- Phase 8: Operational Integration -->
  <g transform="translate(1100, 380)">
    <rect width="250" height="200" rx="8" fill="url(#boxGrad1)" stroke="#3a3a5e" filter="url(#dropShadow)"/>
    <text x="125" y="30" text-anchor="middle" fill="#98fb98" font-family="JetBrains Mono, monospace" font-size="11" letter-spacing="2">PHASE 8</text>
    <text x="125" y="55" text-anchor="middle" fill="#ffffff" font-family="Georgia, serif" font-size="18">Operations</text>
    
    <!-- Operational outputs -->
    <g transform="translate(20, 70)">
      <rect x="0" y="0" width="210" height="25" rx="4" fill="rgba(152,251,152,0.15)" stroke="#98fb98" stroke-width="0.5"/>
      <text x="105" y="17" text-anchor="middle" fill="#e0e0e0" font-family="JetBrains Mono, monospace" font-size="10">Vulnerability Prioritization</text>
      
      <rect x="0" y="33" width="210" height="25" rx="4" fill="rgba(152,251,152,0.15)" stroke="#98fb98" stroke-width="0.5"/>
      <text x="105" y="50" text-anchor="middle" fill="#e0e0e0" font-family="JetBrains Mono, monospace" font-size="10">Threat Hunting Hypotheses</text>
      
      <rect x="0" y="66" width="210" height="25" rx="4" fill="rgba(152,251,152,0.15)" stroke="#98fb98" stroke-width="0.5"/>
      <text x="105" y="83" text-anchor="middle" fill="#e0e0e0" font-family="JetBrains Mono, monospace" font-size="10">Red Team Planning</text>
    </g>
    
    <text x="125" y="180" text-anchor="middle" fill="#6b6b8d" font-family="JetBrains Mono, monospace" font-size="9">Security Workflow Integration</text>
  </g>
  
  <!-- Row 3: Novel Advances -->
  <g transform="translate(50, 630)">
    <rect width="1300" height="220" rx="8" fill="rgba(26,26,46,0.5)" stroke="#3a3a5e" stroke-dasharray="4,4"/>
    <text x="650" y="30" text-anchor="middle" fill="#ff6b6b" font-family="JetBrains Mono, monospace" font-size="11" letter-spacing="3">NOVEL ADVANCES</text>
    
    <!-- Advance cards -->
    <g transform="translate(30, 50)">
      <rect x="0" y="0" width="230" height="140" rx="6" fill="url(#boxGrad1)" stroke="#ff6b6b" stroke-width="0.5"/>
      <text x="115" y="25" text-anchor="middle" fill="#ff6b6b" font-family="Georgia, serif" font-size="14">Dynamic Evolution</text>
      <text x="115" y="50" text-anchor="middle" fill="#8b8bab" font-family="JetBrains Mono, monospace" font-size="9">Anchor-Based Incremental</text>
      <text x="115" y="65" text-anchor="middle" fill="#8b8bab" font-family="JetBrains Mono, monospace" font-size="9">Embedding Updates</text>
      <line x1="20" y1="80" x2="210" y2="80" stroke="#3a3a5e"/>
      <text x="115" y="100" text-anchor="middle" fill="#6b6b8d" font-family="JetBrains Mono, monospace" font-size="8">Optimal Transport</text>
      <text x="115" y="115" text-anchor="middle" fill="#6b6b8d" font-family="JetBrains Mono, monospace" font-size="8">Temporal Morphing</text>
      <text x="115" y="130" text-anchor="middle" fill="#6b6b8d" font-family="JetBrains Mono, monospace" font-size="8">Smooth Animation</text>
    </g>
    
    <g transform="translate(290, 50)">
      <rect x="0" y="0" width="230" height="140" rx="6" fill="url(#boxGrad1)" stroke="#4ecdc4" stroke-width="0.5"/>
      <text x="115" y="25" text-anchor="middle" fill="#4ecdc4" font-family="Georgia, serif" font-size="14">Hyperbolic Geometry</text>
      <text x="115" y="50" text-anchor="middle" fill="#8b8bab" font-family="JetBrains Mono, monospace" font-size="9">Poincaré Ball Model for</text>
      <text x="115" y="65" text-anchor="middle" fill="#8b8bab" font-family="JetBrains Mono, monospace" font-size="9">Hierarchical Threats</text>
      <line x1="20" y1="80" x2="210" y2="80" stroke="#3a3a5e"/>
      <text x="115" y="100" text-anchor="middle" fill="#6b6b8d" font-family="JetBrains Mono, monospace" font-size="8">Exponential Capacity</text>
      <text x="115" y="115" text-anchor="middle" fill="#6b6b8d" font-family="JetBrains Mono, monospace" font-size="8">Tree Structure Embedding</text>
      <text x="115" y="130" text-anchor="middle" fill="#6b6b8d" font-family="JetBrains Mono, monospace" font-size="8">Kill Chain Modeling</text>
    </g>
    
    <g transform="translate(550, 50)">
      <rect x="0" y="0" width="230" height="140" rx="6" fill="url(#boxGrad1)" stroke="#ffe66d" stroke-width="0.5"/>
      <text x="115" y="25" text-anchor="middle" fill="#ffe66d" font-family="Georgia, serif" font-size="14">Multi-Modal Fusion</text>
      <text x="115" y="50" text-anchor="middle" fill="#8b8bab" font-family="JetBrains Mono, monospace" font-size="9">Contrastive Learning</text>
      <text x="115" y="65" text-anchor="middle" fill="#8b8bab" font-family="JetBrains Mono, monospace" font-size="9">Across Data Modalities</text>
      <line x1="20" y1="80" x2="210" y2="80" stroke="#3a3a5e"/>
      <text x="115" y="100" text-anchor="middle" fill="#6b6b8d" font-family="JetBrains Mono, monospace" font-size="8">Structured + Unstructured</text>
      <text x="115" y="115" text-anchor="middle" fill="#6b6b8d" font-family="JetBrains Mono, monospace" font-size="8">Text + Telemetry + Graphs</text>
      <text x="115" y="130" text-anchor="middle" fill="#6b6b8d" font-family="JetBrains Mono, monospace" font-size="8">Unified Representation</text>
    </g>
    
    <g transform="translate(810, 50)">
      <rect x="0" y="0" width="230" height="140" rx="6" fill="url(#boxGrad1)" stroke="#dda0dd" stroke-width="0.5"/>
      <text x="115" y="25" text-anchor="middle" fill="#dda0dd" font-family="Georgia, serif" font-size="14">Causal Discovery</text>
      <text x="115" y="50" text-anchor="middle" fill="#8b8bab" font-family="JetBrains Mono, monospace" font-size="9">PC Algorithm for</text>
      <text x="115" y="65" text-anchor="middle" fill="#8b8bab" font-family="JetBrains Mono, monospace" font-size="9">Attack Causation</text>
      <line x1="20" y1="80" x2="210" y2="80" stroke="#3a3a5e"/>
      <text x="115" y="100" text-anchor="middle" fill="#6b6b8d" font-family="JetBrains Mono, monospace" font-size="8">Correlation ≠ Causation</text>
      <text x="115" y="115" text-anchor="middle" fill="#6b6b8d" font-family="JetBrains Mono, monospace" font-size="8">Interventional Validation</text>
      <text x="115" y="130" text-anchor="middle" fill="#6b6b8d" font-family="JetBrains Mono, monospace" font-size="8">Root Cause Analysis</text>
    </g>
    
    <g transform="translate(1070, 50)">
      <rect x="0" y="0" width="200" height="140" rx="6" fill="url(#boxGrad1)" stroke="#98fb98" stroke-width="0.5"/>
      <text x="100" y="25" text-anchor="middle" fill="#98fb98" font-family="Georgia, serif" font-size="14">Adversarial Defense</text>
      <text x="100" y="50" text-anchor="middle" fill="#8b8bab" font-family="JetBrains Mono, monospace" font-size="9">Certified Robust</text>
      <text x="100" y="65" text-anchor="middle" fill="#8b8bab" font-family="JetBrains Mono, monospace" font-size="9">Embeddings</text>
      <line x1="20" y1="80" x2="180" y2="80" stroke="#3a3a5e"/>
      <text x="100" y="100" text-anchor="middle" fill="#6b6b8d" font-family="JetBrains Mono, monospace" font-size="8">Randomized Smoothing</text>
      <text x="100" y="115" text-anchor="middle" fill="#6b6b8d" font-family="JetBrains Mono, monospace" font-size="8">Ensemble Methods</text>
      <text x="100" y="130" text-anchor="middle" fill="#6b6b8d" font-family="JetBrains Mono, monospace" font-size="8">Manipulation Detection</text>
    </g>
  </g>
</svg>
